<svg aria-hidden="true" style="position: absolute; width: 0; height: 0; overflow: hidden;" version="1.1" xmlns="http://www.w3.org/2000/svg" xmlns:xlink="http://www.w3.org/1999/xlink">
<defs>
<symbol id="icon-ui-radios" viewBox="0 0 20 20">
<path d="M8.75 3.125c0-0.166 0.066-0.325 0.183-0.442s0.276-0.183 0.442-0.183h8.75c0.166 0 0.325 0.066 0.442 0.183s0.183 0.276 0.183 0.442v1.25c0 0.166-0.066 0.325-0.183 0.442s-0.276 0.183-0.442 0.183h-8.75c-0.166 0-0.325-0.066-0.442-0.183s-0.183-0.276-0.183-0.442v-1.25zM0 15c0-0.995 0.395-1.948 1.098-2.652s1.657-1.098 2.652-1.098 1.948 0.395 2.652 1.098c0.703 0.703 1.098 1.657 1.098 2.652s-0.395 1.948-1.098 2.652c-0.703 0.703-1.657 1.098-2.652 1.098s-1.948-0.395-2.652-1.098c-0.703-0.703-1.098-1.657-1.098-2.652zM8.75 13.125c0-0.166 0.066-0.325 0.183-0.442s0.276-0.183 0.442-0.183h8.75c0.166 0 0.325 0.066 0.442 0.183s0.183 0.276 0.183 0.442v1.25c0 0.166-0.066 0.325-0.183 0.442s-0.276 0.183-0.442 0.183h-8.75c-0.166 0-0.325-0.066-0.442-0.183s-0.183-0.276-0.183-0.442v-1.25zM8.75 6.875c0-0.166 0.066-0.325 0.183-0.442s0.276-0.183 0.442-0.183h6.25c0.166 0 0.325 0.066 0.442 0.183s0.183 0.276 0.183 0.442-0.066 0.325-0.183 0.442c-0.117 0.117-0.276 0.183-0.442 0.183h-6.25c-0.166 0-0.325-0.066-0.442-0.183s-0.183-0.276-0.183-0.442zM8.75 16.875c0-0.166 0.066-0.325 0.183-0.442s0.276-0.183 0.442-0.183h6.25c0.166 0 0.325 0.066 0.442 0.183s0.183 0.276 0.183 0.442-0.066 0.325-0.183 0.442c-0.117 0.117-0.276 0.183-0.442 0.183h-6.25c-0.166 0-0.325-0.066-0.442-0.183s-0.183-0.276-0.183-0.442zM3.75 1.25c-0.492 0-0.98 0.097-1.435 0.285s-0.868 0.465-1.217 0.813c-0.348 0.348-0.624 0.762-0.813 1.217s-0.285 0.943-0.285 1.435c0 0.492 0.097 0.98 0.285 1.435s0.465 0.868 0.813 1.217c0.348 0.348 0.762 0.624 1.217 0.813s0.943 0.285 1.435 0.285c0.995 0 1.948-0.395 2.652-1.098s1.098-1.657 1.098-2.652c0-0.995-0.395-1.948-1.098-2.652s-1.657-1.098-2.652-1.098zM3.75 6.875c-0.497 0-0.974-0.198-1.326-0.549s-0.549-0.829-0.549-1.326c0-0.497 0.198-0.974 0.549-1.326s0.829-0.549 1.326-0.549c0.497 0 0.974 0.198 1.326 0.549s0.549 0.829 0.549 1.326c0 0.497-0.198 0.974-0.549 1.326s-0.829 0.549-1.326 0.549z"></path>
</symbol>
<symbol id="icon-star" viewBox="0 0 20 20">
<path d="M9.447 1.048c0.234-0.444 0.871-0.444 1.106 0l2.36 4.474c0.090 0.171 0.255 0.291 0.446 0.324l4.984 0.862c0.495 0.086 0.692 0.691 0.342 1.051l-3.525 3.627c-0.135 0.139-0.198 0.333-0.17 0.525l0.72 5.007c0.072 0.497-0.443 0.872-0.894 0.65l-4.539-2.232c-0.174-0.086-0.378-0.086-0.552 0l-4.539 2.232c-0.451 0.222-0.966-0.152-0.894-0.65l0.72-5.007c0.028-0.192-0.035-0.386-0.17-0.525l-3.525-3.627c-0.35-0.36-0.154-0.966 0.342-1.051l4.984-0.862c0.191-0.033 0.356-0.153 0.446-0.324l2.36-4.474z"></path>
</symbol>
<symbol id="icon-heart" viewBox="0 0 20 20">
<path d="M10 8.349l-1.032-2.064c-0.256-0.511-0.7-1.246-1.329-1.84-0.618-0.585-1.359-0.983-2.255-0.983-1.934 0-3.462 1.53-3.462 3.369 0 1.397 0.639 2.384 2.155 3.888 0.389 0.385 0.832 0.802 1.322 1.261 1.278 1.2 2.868 2.693 4.599 4.689 1.731-1.996 3.321-3.489 4.599-4.689 0.49-0.459 0.935-0.877 1.322-1.261 1.516-1.505 2.155-2.491 2.155-3.888 0-1.839-1.528-3.369-3.462-3.369-0.897 0-1.636 0.398-2.255 0.983-0.629 0.594-1.073 1.329-1.329 1.84l-1.032 2.064zM10.452 17.917c-0.056 0.066-0.125 0.119-0.203 0.155s-0.163 0.055-0.249 0.055-0.171-0.019-0.249-0.055c-0.078-0.036-0.147-0.089-0.203-0.155-1.847-2.195-3.519-3.764-4.896-5.055-2.383-2.237-3.883-3.644-3.883-6.031 0-2.498 2.065-4.523 4.615-4.523 1.846 0 3.137 1.212 3.928 2.317 0.3 0.421 0.528 0.826 0.688 1.145 0.2-0.398 0.43-0.781 0.688-1.145 0.79-1.107 2.082-2.317 3.928-2.317 2.55 0 4.615 2.025 4.615 4.523 0 2.387-1.5 3.794-3.883 6.031-1.377 1.292-3.048 2.863-4.896 5.055z"></path>
</symbol>
<symbol id="icon-petrol" viewBox="0 0 20 20">
<path d="M3.75 3.125c0-0.166 0.066-0.325 0.183-0.442s0.276-0.183 0.442-0.183h6.25c0.166 0 0.325 0.066 0.442 0.183s0.183 0.276 0.183 0.442v6.25c0 0.166-0.066 0.325-0.183 0.442s-0.276 0.183-0.442 0.183h-6.25c-0.166 0-0.325-0.066-0.442-0.183s-0.183-0.276-0.183-0.442v-6.25z"></path>
<path d="M1.25 2.5c0-0.663 0.263-1.299 0.732-1.768s1.105-0.732 1.768-0.732h7.5c0.663 0 1.299 0.263 1.768 0.732s0.732 1.105 0.732 1.768v10c0.663 0 1.299 0.263 1.768 0.732s0.732 1.105 0.732 1.768v0.625c0 0.166 0.066 0.325 0.183 0.442s0.276 0.183 0.442 0.183 0.325-0.066 0.442-0.183c0.117-0.117 0.183-0.276 0.183-0.442v-5.625h-0.625c-0.166 0-0.325-0.066-0.442-0.183s-0.183-0.276-0.183-0.442v-3.906c0-0.166 0.066-0.325 0.183-0.442s0.276-0.183 0.442-0.183h1.869c-0.014-0.595-0.066-1.118-0.251-1.527-0.099-0.238-0.272-0.439-0.492-0.573-0.23-0.137-0.58-0.244-1.125-0.244-0.166 0-0.325-0.066-0.442-0.183s-0.183-0.276-0.183-0.442 0.066-0.325 0.183-0.442c0.117-0.117 0.276-0.183 0.442-0.183 0.705-0.002 1.293 0.138 1.765 0.42 0.479 0.285 0.792 0.689 0.992 1.134 0.369 0.819 0.367 1.831 0.367 2.601v3.969c0 0.082-0.016 0.164-0.047 0.24s-0.077 0.145-0.135 0.203c-0.058 0.058-0.127 0.104-0.203 0.136s-0.157 0.048-0.239 0.048h-0.625v5.625c0 0.497-0.198 0.974-0.549 1.326s-0.828 0.549-1.326 0.549-0.974-0.197-1.326-0.549c-0.352-0.352-0.549-0.828-0.549-1.326v-0.625c0-0.332-0.132-0.649-0.366-0.884s-0.552-0.366-0.884-0.366v5h0.625c0.166 0 0.325 0.066 0.442 0.183s0.183 0.276 0.183 0.442-0.066 0.325-0.183 0.442c-0.117 0.117-0.276 0.183-0.442 0.183h-13.75c-0.166 0-0.325-0.066-0.442-0.183s-0.183-0.276-0.183-0.442 0.066-0.325 0.183-0.442c0.117-0.117 0.276-0.183 0.442-0.183h0.625v-16.25zM12.5 2.5c0-0.332-0.132-0.649-0.366-0.884s-0.552-0.366-0.884-0.366h-7.5c-0.332 0-0.649 0.132-0.884 0.366s-0.366 0.552-0.366 0.884v16.25h10v-16.25z"></path>
</symbol>
<symbol id="icon-grid-3" viewBox="0 0 20 20">
<path d="M5 2.5v2.5h-2.5v-2.5h2.5zM6.25 17.5v-2.5c0-0.332-0.132-0.649-0.366-0.884s-0.552-0.366-0.884-0.366h-2.5c-0.332 0-0.649 0.132-0.884 0.366s-0.366 0.552-0.366 0.884v2.5c0 0.332 0.132 0.649 0.366 0.884s0.552 0.366 0.884 0.366h2.5c0.332 0 0.649-0.132 0.884-0.366s0.366-0.552 0.366-0.884zM6.25 11.25v-2.5c0-0.332-0.132-0.649-0.366-0.884s-0.552-0.366-0.884-0.366h-2.5c-0.332 0-0.649 0.132-0.884 0.366s-0.366 0.552-0.366 0.884v2.5c0 0.332 0.132 0.649 0.366 0.884s0.552 0.366 0.884 0.366h2.5c0.332 0 0.649-0.132 0.884-0.366s0.366-0.552 0.366-0.884zM6.25 5v-2.5c0-0.332-0.132-0.649-0.366-0.884s-0.552-0.366-0.884-0.366h-2.5c-0.332 0-0.649 0.132-0.884 0.366s-0.366 0.552-0.366 0.884v2.5c0 0.332 0.132 0.649 0.366 0.884s0.552 0.366 0.884 0.366h2.5c0.332 0 0.649-0.132 0.884-0.366s0.366-0.552 0.366-0.884zM12.5 17.5v-2.5c0-0.332-0.132-0.649-0.366-0.884s-0.552-0.366-0.884-0.366h-2.5c-0.332 0-0.649 0.132-0.884 0.366s-0.366 0.552-0.366 0.884v2.5c0 0.332 0.132 0.649 0.366 0.884s0.552 0.366 0.884 0.366h2.5c0.332 0 0.649-0.132 0.884-0.366s0.366-0.552 0.366-0.884zM12.5 11.25v-2.5c0-0.332-0.132-0.649-0.366-0.884s-0.552-0.366-0.884-0.366h-2.5c-0.332 0-0.649 0.132-0.884 0.366s-0.366 0.552-0.366 0.884v2.5c0 0.332 0.132 0.649 0.366 0.884s0.552 0.366 0.884 0.366h2.5c0.332 0 0.649-0.132 0.884-0.366s0.366-0.552 0.366-0.884zM12.5 5v-2.5c0-0.332-0.132-0.649-0.366-0.884s-0.552-0.366-0.884-0.366h-2.5c-0.332 0-0.649 0.132-0.884 0.366s-0.366 0.552-0.366 0.884v2.5c0 0.332 0.132 0.649 0.366 0.884s0.552 0.366 0.884 0.366h2.5c0.332 0 0.649-0.132 0.884-0.366s0.366-0.552 0.366-0.884zM11.25 2.5v2.5h-2.5v-2.5h2.5zM17.5 2.5v2.5h-2.5v-2.5h2.5zM5 8.75v2.5h-2.5v-2.5h2.5zM11.25 8.75v2.5h-2.5v-2.5h2.5zM17.5 8.75h-2.5v2.5h2.5v-2.5zM5 15v2.5h-2.5v-2.5h2.5zM11.25 15v2.5h-2.5v-2.5h2.5zM17.5 15v2.5h-2.5v-2.5h2.5zM15 1.25c-0.332 0-0.649 0.132-0.884 0.366s-0.366 0.552-0.366 0.884v2.5c0 0.332 0.132 0.649 0.366 0.884s0.552 0.366 0.884 0.366h2.5c0.332 0 0.649-0.132 0.884-0.366s0.366-0.552 0.366-0.884v-2.5c0-0.332-0.132-0.649-0.366-0.884s-0.552-0.366-0.884-0.366h-2.5zM13.75 8.75c0-0.332 0.132-0.649 0.366-0.884s0.552-0.366 0.884-0.366h2.5c0.332 0 0.649 0.132 0.884 0.366s0.366 0.552 0.366 0.884v2.5c0 0.332-0.132 0.649-0.366 0.884s-0.552 0.366-0.884 0.366h-2.5c-0.332 0-0.649-0.132-0.884-0.366s-0.366-0.552-0.366-0.884v-2.5zM15 13.75c-0.332 0-0.649 0.132-0.884 0.366s-0.366 0.552-0.366 0.884v2.5c0 0.332 0.132 0.649 0.366 0.884s0.552 0.366 0.884 0.366h2.5c0.332 0 0.649-0.132 0.884-0.366s0.366-0.552 0.366-0.884v-2.5c0-0.332-0.132-0.649-0.366-0.884s-0.552-0.366-0.884-0.366h-2.5z"></path>
</symbol>
<symbol id="icon-bi_grid" viewBox="0 0 20 20">
<path d="M1.25 3.125c0-0.497 0.198-0.974 0.549-1.326s0.829-0.549 1.326-0.549h3.75c0.497 0 0.974 0.198 1.326 0.549s0.549 0.829 0.549 1.326v3.75c0 0.497-0.198 0.974-0.549 1.326s-0.829 0.549-1.326 0.549h-3.75c-0.497 0-0.974-0.198-1.326-0.549s-0.549-0.829-0.549-1.326v-3.75zM3.125 2.5c-0.166 0-0.325 0.066-0.442 0.183s-0.183 0.276-0.183 0.442v3.75c0 0.166 0.066 0.325 0.183 0.442s0.276 0.183 0.442 0.183h3.75c0.166 0 0.325-0.066 0.442-0.183s0.183-0.276 0.183-0.442v-3.75c0-0.166-0.066-0.325-0.183-0.442s-0.276-0.183-0.442-0.183h-3.75zM11.25 3.125c0-0.497 0.198-0.974 0.549-1.326s0.829-0.549 1.326-0.549h3.75c0.497 0 0.974 0.198 1.326 0.549s0.549 0.829 0.549 1.326v3.75c0 0.497-0.198 0.974-0.549 1.326s-0.829 0.549-1.326 0.549h-3.75c-0.497 0-0.974-0.198-1.326-0.549s-0.549-0.829-0.549-1.326v-3.75zM13.125 2.5c-0.166 0-0.325 0.066-0.442 0.183s-0.183 0.276-0.183 0.442v3.75c0 0.166 0.066 0.325 0.183 0.442s0.276 0.183 0.442 0.183h3.75c0.166 0 0.325-0.066 0.442-0.183s0.183-0.276 0.183-0.442v-3.75c0-0.166-0.066-0.325-0.183-0.442s-0.276-0.183-0.442-0.183h-3.75zM1.25 13.125c0-0.497 0.198-0.974 0.549-1.326s0.829-0.549 1.326-0.549h3.75c0.497 0 0.974 0.198 1.326 0.549s0.549 0.829 0.549 1.326v3.75c0 0.497-0.198 0.974-0.549 1.326s-0.829 0.549-1.326 0.549h-3.75c-0.497 0-0.974-0.198-1.326-0.549s-0.549-0.829-0.549-1.326v-3.75zM3.125 12.5c-0.166 0-0.325 0.066-0.442 0.183s-0.183 0.276-0.183 0.442v3.75c0 0.166 0.066 0.325 0.183 0.442s0.276 0.183 0.442 0.183h3.75c0.166 0 0.325-0.066 0.442-0.183s0.183-0.276 0.183-0.442v-3.75c0-0.166-0.066-0.325-0.183-0.442s-0.276-0.183-0.442-0.183h-3.75zM11.25 13.125c0-0.497 0.198-0.974 0.549-1.326s0.829-0.549 1.326-0.549h3.75c0.497 0 0.974 0.198 1.326 0.549s0.549 0.829 0.549 1.326v3.75c0 0.497-0.198 0.974-0.549 1.326s-0.829 0.549-1.326 0.549h-3.75c-0.497 0-0.974-0.198-1.326-0.549s-0.549-0.829-0.549-1.326v-3.75zM13.125 12.5c-0.166 0-0.325 0.066-0.442 0.183s-0.183 0.276-0.183 0.442v3.75c0 0.166 0.066 0.325 0.183 0.442s0.276 0.183 0.442 0.183h3.75c0.166 0 0.325-0.066 0.442-0.183s0.183-0.276 0.183-0.442v-3.75c0-0.166-0.066-0.325-0.183-0.442s-0.276-0.183-0.442-0.183h-3.75z"></path>
</symbol>
<symbol id="icon-grid-2" viewBox="0 0 20 20">
<path d="M7.5 1.25h-6.25v17.5h6.25v-17.5zM18.75 1.25h-6.25v6.25h6.25v-6.25zM18.75 12.5v6.25h-6.25v-6.25h6.25zM0 1.25c0-0.332 0.132-0.649 0.366-0.884s0.552-0.366 0.884-0.366h6.25c0.332 0 0.649 0.132 0.884 0.366s0.366 0.552 0.366 0.884v17.5c0 0.332-0.132 0.649-0.366 0.884s-0.552 0.366-0.884 0.366h-6.25c-0.332 0-0.649-0.132-0.884-0.366s-0.366-0.552-0.366-0.884v-17.5zM11.25 1.25c0-0.332 0.132-0.649 0.366-0.884s0.552-0.366 0.884-0.366h6.25c0.332 0 0.649 0.132 0.884 0.366s0.366 0.552 0.366 0.884v6.25c0 0.332-0.132 0.649-0.366 0.884s-0.552 0.366-0.884 0.366h-6.25c-0.332 0-0.649-0.132-0.884-0.366s-0.366-0.552-0.366-0.884v-6.25zM12.5 11.25c-0.332 0-0.649 0.132-0.884 0.366s-0.366 0.552-0.366 0.884v6.25c0 0.332 0.132 0.649 0.366 0.884s0.552 0.366 0.884 0.366h6.25c0.332 0 0.649-0.132 0.884-0.366s0.366-0.552 0.366-0.884v-6.25c0-0.332-0.132-0.649-0.366-0.884s-0.552-0.366-0.884-0.366h-6.25z"></path>
</symbol>
<symbol id="icon-ph_shower" viewBox="0 0 20 20">
<path d="M5 18.438c0 0.185-0.055 0.367-0.158 0.521s-0.249 0.274-0.421 0.345-0.36 0.090-0.542 0.053c-0.182-0.036-0.349-0.126-0.48-0.257s-0.22-0.298-0.257-0.48c-0.036-0.182-0.018-0.37 0.053-0.542s0.191-0.318 0.345-0.421c0.154-0.103 0.335-0.158 0.521-0.158 0.249 0 0.487 0.099 0.663 0.275s0.275 0.414 0.275 0.663zM6.563 15c-0.185 0-0.367 0.055-0.521 0.158s-0.274 0.249-0.345 0.421c-0.071 0.171-0.090 0.36-0.053 0.542s0.125 0.349 0.257 0.48c0.131 0.131 0.298 0.22 0.48 0.257s0.37 0.018 0.542-0.053 0.318-0.191 0.421-0.345c0.103-0.154 0.158-0.335 0.158-0.521 0-0.249-0.099-0.487-0.275-0.663s-0.414-0.275-0.663-0.275zM1.563 15c-0.185 0-0.367 0.055-0.521 0.158s-0.274 0.249-0.345 0.421c-0.071 0.171-0.090 0.36-0.053 0.542s0.125 0.349 0.257 0.48c0.131 0.131 0.298 0.22 0.48 0.257s0.37 0.018 0.542-0.053c0.171-0.071 0.318-0.191 0.421-0.345s0.158-0.335 0.158-0.521c0-0.249-0.099-0.487-0.275-0.663s-0.414-0.275-0.663-0.275zM4.063 12.5c-0.185 0-0.367 0.055-0.521 0.158s-0.274 0.249-0.345 0.421c-0.071 0.171-0.090 0.36-0.053 0.542s0.125 0.349 0.257 0.48c0.131 0.131 0.298 0.22 0.48 0.257s0.37 0.018 0.542-0.053c0.171-0.071 0.318-0.191 0.421-0.345s0.158-0.335 0.158-0.521c0-0.249-0.099-0.487-0.275-0.663s-0.414-0.275-0.663-0.275zM20 3.125c0 0.166-0.066 0.325-0.183 0.442s-0.276 0.183-0.442 0.183h-2.241l-2.176 2.177-1.692 9.905c-0.038 0.226-0.138 0.438-0.288 0.611s-0.345 0.302-0.564 0.372c-0.219 0.070-0.452 0.078-0.675 0.024s-0.427-0.169-0.589-0.331l-7.656-7.656c-0.162-0.162-0.277-0.366-0.331-0.59s-0.046-0.457 0.025-0.676c0.070-0.219 0.199-0.414 0.373-0.564s0.386-0.25 0.612-0.287l9.902-1.693 2.359-2.359c0.058-0.058 0.127-0.104 0.203-0.135s0.157-0.047 0.239-0.047h2.5c0.166 0 0.325 0.066 0.442 0.183s0.183 0.276 0.183 0.442zM13.61 6.39l-9.235 1.579 7.656 7.656 1.579-9.235z"></path>
</symbol>
<symbol id="icon-tv" viewBox="0 0 20 20">
<path d="M0 5c0 0 0-2.5 2.5-2.5h15c0 0 2.5 0 2.5 2.5v7.5c0 0 0 2.5-2.5 2.5h-5c0 0.833 0.104 1.458 0.313 1.875h0.938c0.166 0 0.325 0.066 0.442 0.183s0.183 0.276 0.183 0.442c0 0.166-0.066 0.325-0.183 0.442s-0.276 0.183-0.442 0.183h-7.5c-0.166 0-0.325-0.066-0.442-0.183s-0.183-0.276-0.183-0.442c0-0.166 0.066-0.325 0.183-0.442s0.276-0.183 0.442-0.183h0.938c0.208-0.417 0.313-1.042 0.313-1.875h-5c0 0-2.5 0-2.5-2.5v-7.5zM1.747 3.931c-0.137 0.096-0.247 0.226-0.317 0.377-0.105 0.221-0.166 0.46-0.18 0.704v7.488c0 0.406 0.097 0.628 0.181 0.753 0.088 0.13 0.213 0.236 0.378 0.317 0.211 0.101 0.439 0.162 0.672 0.179l0.031 0.001h14.988c0.406 0 0.628-0.098 0.753-0.181 0.137-0.096 0.247-0.226 0.317-0.378 0.101-0.211 0.162-0.439 0.179-0.672l0.001-0.031v-7.488c0-0.406-0.098-0.627-0.181-0.752-0.096-0.137-0.226-0.247-0.378-0.318-0.221-0.105-0.46-0.166-0.704-0.18h-14.988c-0.406 0-0.627 0.097-0.752 0.181z"></path>
</symbol>
<symbol id="icon-kitchen" viewBox="0 0 20 20">
<path d="M0.625 7.499c-0.094 0-0.186 0.021-0.27 0.062s-0.158 0.099-0.217 0.172-0.1 0.158-0.121 0.249c-0.021 0.091-0.022 0.186-0.002 0.277l2.065 9.293c0.154 0.694 0.54 1.315 1.095 1.76s1.244 0.688 1.955 0.688h7.24c0.711-0 1.401-0.243 1.955-0.688s0.941-1.066 1.095-1.76l0.164-0.738c0.956 0.179 1.944-0.021 2.756-0.557s1.383-1.367 1.594-2.316c0.211-0.95 0.044-1.944-0.464-2.773s-1.319-1.428-2.261-1.671l0.276-1.238c0.020-0.091 0.020-0.186-0.002-0.277s-0.063-0.176-0.121-0.249c-0.059-0.073-0.133-0.132-0.217-0.172s-0.177-0.061-0.27-0.062h-16.25zM16.25 15.624c-0.132 0-0.264-0.010-0.395-0.031l1.084-4.872c0.578 0.167 1.077 0.538 1.404 1.043s0.461 1.111 0.377 1.707c-0.084 0.596-0.38 1.142-0.833 1.537s-1.035 0.614-1.637 0.616zM3.3 17.281l-1.896-8.531h14.692l-1.896 8.531c-0.092 0.417-0.324 0.789-0.657 1.056s-0.747 0.413-1.173 0.413h-7.24c-0.427-0-0.84-0.146-1.173-0.413s-0.564-0.639-0.657-1.056z"></path>
<path d="M5.5 0.999l-0.004 0.005-0.018 0.024c-0.091 0.125-0.176 0.254-0.255 0.387-0.067 0.107-0.126 0.218-0.176 0.334-0.032 0.075-0.042 0.115-0.046 0.129v0.005c0.014 0.111 0.053 0.216 0.114 0.31 0.094 0.166 0.223 0.34 0.385 0.556l0.012 0.015c0.148 0.197 0.325 0.434 0.463 0.679 0.14 0.25 0.275 0.569 0.275 0.931 0 0.235-0.081 0.46-0.149 0.618-0.072 0.168-0.157 0.33-0.252 0.485-0.098 0.164-0.204 0.323-0.316 0.477l-0.022 0.031-0.006 0.010-0.002 0.003c-0.099 0.133-0.247 0.221-0.411 0.244s-0.331-0.019-0.464-0.118c-0.133-0.099-0.221-0.247-0.244-0.411s0.019-0.331 0.118-0.464l0.004-0.005 0.017-0.024c0.091-0.125 0.176-0.254 0.255-0.388 0.067-0.107 0.126-0.218 0.176-0.334 0.032-0.075 0.042-0.115 0.046-0.129-0.013-0.112-0.052-0.22-0.112-0.315-0.116-0.194-0.245-0.38-0.386-0.556l-0.013-0.015c-0.169-0.216-0.323-0.443-0.463-0.679-0.17-0.282-0.265-0.602-0.275-0.931 0-0.235 0.081-0.46 0.149-0.617 0.074-0.173 0.167-0.343 0.252-0.485 0.099-0.163 0.205-0.322 0.316-0.477l0.031-0.044c0.099-0.133 0.247-0.221 0.411-0.244s0.331 0.019 0.464 0.118c0.133 0.099 0.221 0.247 0.244 0.411s-0.019 0.331-0.118 0.464zM9.25 0.999l-0.004 0.005-0.018 0.024c-0.091 0.125-0.176 0.254-0.255 0.387-0.067 0.107-0.126 0.218-0.176 0.334-0.032 0.075-0.043 0.115-0.046 0.129v0.005c0.014 0.111 0.053 0.216 0.114 0.31 0.094 0.166 0.223 0.34 0.385 0.556l0.012 0.015c0.148 0.197 0.325 0.434 0.463 0.679 0.14 0.25 0.275 0.569 0.275 0.931 0 0.235-0.081 0.46-0.149 0.618-0.072 0.168-0.157 0.33-0.253 0.485-0.098 0.164-0.204 0.323-0.316 0.477l-0.022 0.031-0.006 0.010-0.002 0.003c-0.099 0.133-0.247 0.221-0.411 0.244s-0.331-0.019-0.464-0.118c-0.133-0.099-0.221-0.247-0.244-0.411s0.019-0.331 0.118-0.464l0.004-0.005 0.018-0.024c0.091-0.125 0.176-0.254 0.255-0.388 0.067-0.107 0.126-0.218 0.176-0.334 0.032-0.075 0.042-0.115 0.046-0.129-0.013-0.112-0.052-0.22-0.112-0.315-0.116-0.194-0.245-0.38-0.386-0.556l-0.012-0.015c-0.169-0.216-0.323-0.443-0.463-0.679-0.17-0.282-0.265-0.602-0.275-0.931 0-0.235 0.081-0.46 0.149-0.617 0.074-0.173 0.168-0.343 0.253-0.485 0.099-0.163 0.205-0.322 0.316-0.477l0.031-0.044c0.099-0.133 0.247-0.221 0.411-0.244s0.331 0.019 0.464 0.118 0.221 0.247 0.244 0.411c0.024 0.164-0.019 0.331-0.118 0.464zM13 0.999l-0.004 0.005-0.017 0.024c-0.091 0.125-0.176 0.254-0.255 0.387-0.067 0.107-0.126 0.218-0.176 0.334-0.033 0.075-0.043 0.115-0.046 0.129v0.005c0.014 0.111 0.053 0.216 0.114 0.31 0.094 0.166 0.223 0.34 0.385 0.556l0.012 0.015c0.148 0.197 0.325 0.434 0.462 0.679 0.14 0.25 0.275 0.569 0.275 0.931 0 0.235-0.081 0.46-0.149 0.618-0.072 0.168-0.157 0.33-0.253 0.485-0.098 0.164-0.203 0.323-0.315 0.477l-0.024 0.031-0.006 0.010-0.003 0.003c-0.099 0.133-0.247 0.221-0.411 0.244s-0.331-0.019-0.464-0.118c-0.133-0.099-0.221-0.247-0.244-0.411s0.019-0.331 0.118-0.464l0.004-0.005 0.018-0.024c0.091-0.125 0.176-0.254 0.255-0.388 0.067-0.107 0.126-0.218 0.176-0.334 0.032-0.075 0.043-0.115 0.046-0.129-0.013-0.112-0.052-0.22-0.112-0.315-0.116-0.194-0.245-0.38-0.386-0.556l-0.013-0.015c-0.169-0.216-0.323-0.443-0.462-0.679-0.17-0.282-0.265-0.602-0.275-0.931 0-0.235 0.081-0.46 0.149-0.617 0.074-0.173 0.168-0.343 0.252-0.485 0.099-0.163 0.205-0.322 0.316-0.477l0.031-0.044c0.099-0.133 0.247-0.221 0.411-0.244s0.331 0.019 0.464 0.118 0.221 0.247 0.244 0.411c0.024 0.164-0.019 0.331-0.118 0.464z"></path>
</symbol>
<symbol id="icon-diagram" viewBox="0 0 20 20">
<path d="M7.5 4.375c0-0.497 0.198-0.974 0.549-1.326s0.829-0.549 1.326-0.549h1.25c0.497 0 0.974 0.198 1.326 0.549s0.549 0.829 0.549 1.326v1.25c0 0.497-0.198 0.974-0.549 1.326s-0.829 0.549-1.326 0.549v1.25h6.875c0.166 0 0.325 0.066 0.442 0.183s0.183 0.276 0.183 0.442v1.25c0 0.166-0.066 0.325-0.183 0.442s-0.276 0.183-0.442 0.183c-0.166 0-0.325-0.066-0.442-0.183s-0.183-0.276-0.183-0.442v-0.625h-6.25v0.625c0 0.166-0.066 0.325-0.183 0.442s-0.276 0.183-0.442 0.183c-0.166 0-0.325-0.066-0.442-0.183s-0.183-0.276-0.183-0.442v-0.625h-6.25v0.625c0 0.166-0.066 0.325-0.183 0.442s-0.276 0.183-0.442 0.183c-0.166 0-0.325-0.066-0.442-0.183s-0.183-0.276-0.183-0.442v-1.25c0-0.166 0.066-0.325 0.183-0.442s0.276-0.183 0.442-0.183h6.875v-1.25c-0.497 0-0.974-0.198-1.326-0.549s-0.549-0.829-0.549-1.326v-1.25zM10.625 6.25c0.166 0 0.325-0.066 0.442-0.183s0.183-0.276 0.183-0.442v-1.25c0-0.166-0.066-0.325-0.183-0.442s-0.276-0.183-0.442-0.183h-1.25c-0.166 0-0.325 0.066-0.442 0.183s-0.183 0.276-0.183 0.442v1.25c0 0.166 0.066 0.325 0.183 0.442s0.276 0.183 0.442 0.183h1.25zM0 14.375c0-0.497 0.198-0.974 0.549-1.326s0.829-0.549 1.326-0.549h1.25c0.497 0 0.974 0.198 1.326 0.549s0.549 0.829 0.549 1.326v1.25c0 0.497-0.198 0.974-0.549 1.326s-0.829 0.549-1.326 0.549h-1.25c-0.497 0-0.974-0.198-1.326-0.549s-0.549-0.829-0.549-1.326v-1.25zM1.875 13.75c-0.166 0-0.325 0.066-0.442 0.183s-0.183 0.276-0.183 0.442v1.25c0 0.166 0.066 0.325 0.183 0.442s0.276 0.183 0.442 0.183h1.25c0.166 0 0.325-0.066 0.442-0.183s0.183-0.276 0.183-0.442v-1.25c0-0.166-0.066-0.325-0.183-0.442s-0.276-0.183-0.442-0.183h-1.25zM7.5 14.375c0-0.497 0.198-0.974 0.549-1.326s0.829-0.549 1.326-0.549h1.25c0.497 0 0.974 0.198 1.326 0.549s0.549 0.829 0.549 1.326v1.25c0 0.497-0.198 0.974-0.549 1.326s-0.829 0.549-1.326 0.549h-1.25c-0.497 0-0.974-0.198-1.326-0.549s-0.549-0.829-0.549-1.326v-1.25zM9.375 13.75c-0.166 0-0.325 0.066-0.442 0.183s-0.183 0.276-0.183 0.442v1.25c0 0.166 0.066 0.325 0.183 0.442s0.276 0.183 0.442 0.183h1.25c0.166 0 0.325-0.066 0.442-0.183s0.183-0.276 0.183-0.442v-1.25c0-0.166-0.066-0.325-0.183-0.442s-0.276-0.183-0.442-0.183h-1.25zM15 14.375c0-0.497 0.198-0.974 0.549-1.326s0.829-0.549 1.326-0.549h1.25c0.497 0 0.974 0.198 1.326 0.549s0.549 0.829 0.549 1.326v1.25c0 0.497-0.198 0.974-0.549 1.326s-0.829 0.549-1.326 0.549h-1.25c-0.497 0-0.974-0.198-1.326-0.549s-0.549-0.829-0.549-1.326v-1.25zM16.875 13.75c-0.166 0-0.325 0.066-0.442 0.183s-0.183 0.276-0.183 0.442v1.25c0 0.166 0.066 0.325 0.183 0.442s0.276 0.183 0.442 0.183h1.25c0.166 0 0.325-0.066 0.442-0.183s0.183-0.276 0.183-0.442v-1.25c0-0.166-0.066-0.325-0.183-0.442s-0.276-0.183-0.442-0.183h-1.25z"></path>
</symbol>
<symbol id="icon-wind" viewBox="0 0 20 20">
<path d="M15.625 2.5c-0.829 0-1.624 0.329-2.21 0.915s-0.915 1.381-0.915 2.21c0 0.166-0.066 0.325-0.183 0.442s-0.276 0.183-0.442 0.183c-0.166 0-0.325-0.066-0.442-0.183s-0.183-0.276-0.183-0.442c0-0.865 0.257-1.711 0.737-2.431s1.164-1.28 1.963-1.611c0.799-0.331 1.679-0.418 2.528-0.249s1.628 0.585 2.24 1.197c0.612 0.612 1.029 1.391 1.197 2.24s0.082 1.728-0.249 2.528c-0.331 0.799-0.892 1.483-1.611 1.963s-1.565 0.737-2.431 0.737h-15c-0.166 0-0.325-0.066-0.442-0.183s-0.183-0.276-0.183-0.442c0-0.166 0.066-0.325 0.183-0.442s0.276-0.183 0.442-0.183h15c0.829 0 1.624-0.329 2.21-0.915s0.915-1.381 0.915-2.21-0.329-1.624-0.915-2.21c-0.586-0.586-1.381-0.915-2.21-0.915zM6.875 3.75c-0.332 0-0.649 0.132-0.884 0.366s-0.366 0.552-0.366 0.884c0 0.166-0.066 0.325-0.183 0.442s-0.276 0.183-0.442 0.183c-0.166 0-0.325-0.066-0.442-0.183s-0.183-0.276-0.183-0.442c0-0.494 0.147-0.978 0.421-1.389s0.665-0.732 1.122-0.921c0.457-0.189 0.959-0.239 1.444-0.142s0.93 0.335 1.28 0.684 0.588 0.795 0.684 1.28c0.097 0.485 0.047 0.988-0.142 1.444s-0.51 0.847-0.921 1.122-0.894 0.421-1.389 0.421h-6.25c-0.166 0-0.325-0.066-0.442-0.183s-0.183-0.276-0.183-0.442c0-0.166 0.066-0.325 0.183-0.442s0.276-0.183 0.442-0.183h6.25c0.332 0 0.649-0.132 0.884-0.366s0.366-0.552 0.366-0.884c0-0.332-0.132-0.649-0.366-0.884s-0.552-0.366-0.884-0.366zM0 11.875c0-0.166 0.066-0.325 0.183-0.442s0.276-0.183 0.442-0.183h12.553c0.742 0 1.467 0.22 2.083 0.632s1.097 0.998 1.381 1.683c0.284 0.685 0.358 1.439 0.213 2.167s-0.502 1.396-1.026 1.92c-0.524 0.524-1.193 0.882-1.92 1.026s-1.481 0.070-2.167-0.213-1.271-0.764-1.683-1.381c-0.412-0.617-0.632-1.342-0.632-2.083 0-0.166 0.066-0.325 0.183-0.442s0.276-0.183 0.442-0.183c0.166 0 0.325 0.066 0.442 0.183s0.183 0.276 0.183 0.442c0 0.494 0.147 0.978 0.421 1.389s0.665 0.732 1.122 0.921c0.457 0.189 0.959 0.239 1.444 0.142s0.93-0.335 1.28-0.684 0.588-0.795 0.684-1.28c0.097-0.485 0.047-0.988-0.142-1.444s-0.51-0.847-0.921-1.122-0.894-0.421-1.389-0.421h-12.553c-0.166 0-0.325-0.066-0.442-0.183s-0.183-0.276-0.183-0.442z"></path>
</symbol>
<symbol id="icon-map" viewBox="0 0 20 20">
<path d="M19.771 0.141c0.072 0.059 0.129 0.132 0.169 0.216s0.060 0.175 0.060 0.268v17.5c-0 0.144-0.050 0.284-0.142 0.396s-0.219 0.188-0.361 0.217l-6.25 1.25c-0.081 0.016-0.164 0.016-0.245 0l-6.128-1.225-6.127 1.225c-0.091 0.018-0.184 0.016-0.274-0.007s-0.173-0.064-0.245-0.123c-0.072-0.058-0.129-0.132-0.169-0.216s-0.060-0.175-0.060-0.267v-17.5c0-0.144 0.050-0.284 0.142-0.396s0.219-0.188 0.361-0.216l6.25-1.25c0.081-0.016 0.164-0.016 0.245 0l6.127 1.225 6.128-1.225c0.091-0.018 0.184-0.016 0.274 0.006s0.173 0.064 0.245 0.123zM12.5 2.387l-5-1v16.225l5 1v-16.225zM13.75 18.612l5-1v-16.225l-5 1v16.225zM6.25 17.612v-16.225l-5 1v16.225l5-1z"></path>
</symbol>
</defs>
</svg>
