<svg aria-hidden="true" style="position: absolute; width: 0; height: 0; overflow: hidden;" version="1.1" xmlns="http://www.w3.org/2000/svg" xmlns:xlink="http://www.w3.org/1999/xlink">
<defs>
<symbol id="icon-wind" viewBox="0 0 20 20">
<path d="M15.625 2.5c-0.829 0-1.624 0.329-2.21 0.915s-0.915 1.381-0.915 2.21c0 0.166-0.066 0.325-0.183 0.442s-0.276 0.183-0.442 0.183c-0.166 0-0.325-0.066-0.442-0.183s-0.183-0.276-0.183-0.442c0-0.865 0.257-1.711 0.737-2.431s1.164-1.28 1.963-1.611c0.799-0.331 1.679-0.418 2.528-0.249s1.628 0.585 2.24 1.197c0.612 0.612 1.029 1.391 1.197 2.24s0.082 1.728-0.249 2.528c-0.331 0.799-0.892 1.483-1.611 1.963s-1.565 0.737-2.431 0.737h-15c-0.166 0-0.325-0.066-0.442-0.183s-0.183-0.276-0.183-0.442c0-0.166 0.066-0.325 0.183-0.442s0.276-0.183 0.442-0.183h15c0.829 0 1.624-0.329 2.21-0.915s0.915-1.381 0.915-2.21-0.329-1.624-0.915-2.21c-0.586-0.586-1.381-0.915-2.21-0.915zM6.875 3.75c-0.332 0-0.649 0.132-0.884 0.366s-0.366 0.552-0.366 0.884c0 0.166-0.066 0.325-0.183 0.442s-0.276 0.183-0.442 0.183c-0.166 0-0.325-0.066-0.442-0.183s-0.183-0.276-0.183-0.442c0-0.494 0.147-0.978 0.421-1.389s0.665-0.732 1.122-0.921c0.457-0.189 0.959-0.239 1.444-0.142s0.93 0.335 1.28 0.684 0.588 0.795 0.684 1.28c0.097 0.485 0.047 0.988-0.142 1.444s-0.51 0.847-0.921 1.122-0.894 0.421-1.389 0.421h-6.25c-0.166 0-0.325-0.066-0.442-0.183s-0.183-0.276-0.183-0.442c0-0.166 0.066-0.325 0.183-0.442s0.276-0.183 0.442-0.183h6.25c0.332 0 0.649-0.132 0.884-0.366s0.366-0.552 0.366-0.884c0-0.332-0.132-0.649-0.366-0.884s-0.552-0.366-0.884-0.366zM0 11.875c0-0.166 0.066-0.325 0.183-0.442s0.276-0.183 0.442-0.183h12.553c0.742 0 1.467 0.22 2.083 0.632s1.097 0.998 1.381 1.683c0.284 0.685 0.358 1.439 0.213 2.167s-0.502 1.396-1.026 1.92c-0.524 0.524-1.193 0.882-1.92 1.026s-1.481 0.070-2.167-0.213-1.271-0.764-1.683-1.381c-0.412-0.617-0.632-1.342-0.632-2.083 0-0.166 0.066-0.325 0.183-0.442s0.276-0.183 0.442-0.183c0.166 0 0.325 0.066 0.442 0.183s0.183 0.276 0.183 0.442c0 0.494 0.147 0.978 0.421 1.389s0.665 0.732 1.122 0.921c0.457 0.189 0.959 0.239 1.444 0.142s0.93-0.335 1.28-0.684 0.588-0.795 0.684-1.28c0.097-0.485 0.047-0.988-0.142-1.444s-0.51-0.847-0.921-1.122-0.894-0.421-1.389-0.421h-12.553c-0.166 0-0.325-0.066-0.442-0.183s-0.183-0.276-0.183-0.442z"></path>
</symbol>
<symbol id="icon-map" viewBox="0 0 20 20">
<path d="M19.771 0.141c0.072 0.059 0.129 0.132 0.169 0.216s0.060 0.175 0.060 0.268v17.5c-0 0.144-0.050 0.284-0.142 0.396s-0.219 0.188-0.361 0.217l-6.25 1.25c-0.081 0.016-0.164 0.016-0.245 0l-6.128-1.225-6.127 1.225c-0.091 0.018-0.184 0.016-0.274-0.007s-0.173-0.064-0.245-0.123c-0.072-0.058-0.129-0.132-0.169-0.216s-0.060-0.175-0.060-0.267v-17.5c0-0.144 0.050-0.284 0.142-0.396s0.219-0.188 0.361-0.216l6.25-1.25c0.081-0.016 0.164-0.016 0.245 0l6.127 1.225 6.128-1.225c0.091-0.018 0.184-0.016 0.274 0.006s0.173 0.064 0.245 0.123zM12.5 2.387l-5-1v16.225l5 1v-16.225zM13.75 18.612l5-1v-16.225l-5 1v16.225zM6.25 17.612v-16.225l-5 1v16.225l5-1z"></path>
</symbol>
</defs>
</svg>
